<svg width="24" height="24" viewBox="0 0 24 24" fill="none" xmlns="http://www.w3.org/2000/svg">
<path d="M0 12.0716C0.000675878 14.9292 1.02057 17.6929 2.87635 19.8658C4.73214 22.0388 7.30213 23.4786 10.1244 23.9264V15.5396H7.08V12.0716H10.128V9.43165C10.0607 8.81376 10.1303 8.18862 10.3318 7.60065C10.5333 7.01267 10.8618 6.47628 11.294 6.02957C11.7261 5.58285 12.2514 5.23678 12.8323 5.01592C13.4133 4.79506 14.0358 4.70483 14.6556 4.75165C15.5556 4.76605 16.4556 4.84645 17.3436 4.99165V7.94245H15.8268C15.569 7.90868 15.3069 7.93328 15.0599 8.01443C14.8129 8.09557 14.5873 8.23119 14.3997 8.41125C14.2122 8.59131 14.0675 8.81122 13.9763 9.05472C13.8852 9.29822 13.85 9.55909 13.8732 9.81805V12.0716H17.1984L16.6668 15.5408H13.8732V23.9264C16.1383 23.5685 18.2535 22.5689 19.9682 21.0462C21.6829 19.5234 22.9254 17.5412 23.5485 15.3342C24.1716 13.1273 24.1493 10.7879 23.4842 8.59325C22.8191 6.39856 21.5391 4.44041 19.7956 2.95062C18.0522 1.46084 15.9184 0.501813 13.6468 0.187095C11.3753 -0.127624 9.0611 0.215143 6.9783 1.17481C4.8955 2.13448 3.1313 3.67087 1.89457 5.60206C0.657833 7.53326 0.000364044 9.77839 0 12.0716Z" fill="white"/>
</svg>
